<?xml version="1.0" encoding="UTF-8" standalone="no"?>
<!-- Created with Inkscape (http://www.inkscape.org/) -->

<svg
   xmlns:dc="http://purl.org/dc/elements/1.1/"
   xmlns:cc="http://creativecommons.org/ns#"
   xmlns:rdf="http://www.w3.org/1999/02/22-rdf-syntax-ns#"
   xmlns:svg="http://www.w3.org/2000/svg"
   xmlns="http://www.w3.org/2000/svg"
   xmlns:sodipodi="http://sodipodi.sourceforge.net/DTD/sodipodi-0.dtd"
   xmlns:inkscape="http://www.inkscape.org/namespaces/inkscape"
   width="297mm"
   height="420mm"
   viewBox="0 0 1122.5197 1587.4016"
   version="1.1"
   id="svg8"
   inkscape:version="0.92.2 (5c3e80d, 2017-08-06)"
   sodipodi:docname="cymbal.svg">
  <defs
     id="defs2" />
  <sodipodi:namedview
     id="base"
     pagecolor="#ffffff"
     bordercolor="#666666"
     borderopacity="1.0"
     inkscape:pageopacity="0.0"
     inkscape:pageshadow="2"
     inkscape:zoom="0.64"
     inkscape:cx="863.74226"
     inkscape:cy="1051.7539"
     inkscape:document-units="mm"
     inkscape:current-layer="svg8"
     showgrid="true"
     inkscape:window-width="2560"
     inkscape:window-height="1017"
     inkscape:window-x="-8"
     inkscape:window-y="-8"
     inkscape:window-maximized="1"
     units="mm"
     inkscape:snap-others="true"
     inkscape:snap-to-guides="true"
     inkscape:snap-grids="true"
     inkscape:object-nodes="false"
     inkscape:snap-nodes="false"
     inkscape:snap-global="true"
     inkscape:snap-page="false">
    <inkscape:grid
       type="xygrid"
       id="grid88" />
  </sodipodi:namedview>
  <g
     id="g9">
    <path
       style="fill:#ABB3B7;"
       d="M374.304,470.224v-98.4c0-8-6.4-13.6-13.6-13.6c-8,0-13.6,6.4-13.6,13.6v98.4H374.304z"
       id="path5" />
    <path
       style="fill:#ABB3B7;"
       d="M367.904,347.824c5.6,5.6,5.6,14.4,0,19.2l0,0c-5.6,5.6-14.4,5.6-19.2,0l-132-131.2   c-5.6-5.6-5.6-14.4,0-19.2l0,0c5.6-5.6,14.4-5.6,19.2,0L367.904,347.824z"
       id="path7" />
  </g>
  <path
     style="fill:#979B9E;"
     d="M235.904,216.624c-5.6-5.6-14.4-5.6-19.2,0c-5.6,5.6-5.6,14.4,0,19.2l82.4,82.4h39.2L235.904,216.624  z"
     id="path11" />
  <path
     style="fill:#555B59;"
     d="M187.104,131.024c1.6,1.6,1.6,4.8,0,7.2l0,0c-1.6,1.6-4.8,1.6-7.2,0l-10.4-10.4  c-1.6-1.6-1.6-4.8,0-7.2l0,0c1.6-1.6,4.8-1.6,7.2,0L187.104,131.024z"
     id="path13" />
  <path
     style="fill:#ABB3B7;"
     d="M178.304,129.424c0.8,0.8,0.8,2.4,0,3.2l-14.4,13.6c-0.8,0.8-2.4,0.8-3.2,0l0,0  c-0.8-0.8-0.8-2.4,0-3.2l13.6-13.6C175.904,128.624,176.704,128.624,178.304,129.424L178.304,129.424z"
     id="path15" />
  <path
     style="fill:#B9C4C9;"
     d="M165.504,154.224c2.4,2.4,2.4,7.2,0,9.6l0,0c-2.4,2.4-7.2,2.4-9.6,0l-61.6-61.6  c-2.4-2.4-2.4-7.2,0-9.6l0,0c2.4-2.4,7.2-2.4,9.6,0L165.504,154.224z"
     id="path17" />
  <path
     style="fill:#ABB3B7;"
     d="M94.304,92.624L94.304,92.624c2.4-2.4,7.2-2.4,9.6,0l61.6,61.6c2.4,2.4,2.4,7.2,0,9.6l0,0  c-2.4,2.4-7.2,2.4-9.6,0"
     id="path19" />
  <path
     style="fill:#D66600;"
     d="M231.904,151.024c19.2,19.2,16.8,52.8-5.6,75.2s-56,24.8-75.2,5.6s-16.8-52.8,5.6-75.2  C179.104,135.024,212.704,131.824,231.904,151.024z"
     id="path21" />
  <path
     style="fill:#C65B02;"
     d="M156.704,157.424c22.4-22.4,56-24.8,75.2-5.6s16.8,52.8-5.6,75.2"
     id="path23" />
  <path
     style="fill:#AD500B;"
     d="M231.104,150.224c-19.2-18.4-52-15.2-74.4,6.4c-3.2,3.2-5.6,6.4-8,9.6l0,0h82.4L231.104,150.224z"
     id="path25" />
  <path
     style="fill:#FFD41D;"
     d="M469.504,5.424c17.6,17.6-80.8,127.2-208.8,255.2s-237.6,227.2-255.2,208.8  c-18.4-17.6,48.8-159.2,176.8-287.2S451.904-12.976,469.504,5.424z"
     id="path27" />
  <path
     style="fill:#FFAC1A;"
     d="M467.104,3.024c17.6,17.6-80.8,127.2-208.8,255.2s-237.6,227.2-255.2,208.8  c-18.4-17.6,48-159.2,176.8-287.2C307.904,51.024,449.504-15.376,467.104,3.024z"
     id="path29" />
  <g
     id="g35">
    <path
       style="fill:#F29C11;"
       d="M179.904,179.824c128-128.8,269.6-195.2,287.2-176.8c17.6,17.6-80.8,127.2-208.8,255.2"
       id="path31" />
    <path
       style="fill:#F29C11;"
       d="M447.104,0.624c-46.4,8.8-161.6,72.8-267.2,179.2c-106.4,105.6-170.4,220.8-179.2,267.2   c39.2-16,132-102.4,238.4-208S431.104,39.824,447.104,0.624z"
       id="path33" />
  </g>
  <g
     id="g41">
    <path
       style="fill:#E88C07;"
       d="M239.104,239.024c106.4-106.4,192-199.2,208-238.4c-46.4,8.8-161.6,72.8-267.2,179.2"
       id="path37" />
    <path
       style="fill:#E88C07;"
       d="M11.904,414.224c47.2-32.8,124.8-105.6,211.2-192c85.6-86.4,158.4-164,191.2-210.4   c-56,23.2-148,81.6-234.4,168S35.104,358.224,11.904,414.224z"
       id="path39" />
  </g>
  <g
     id="g47">
    <path
       style="fill:#E28305;"
       d="M222.304,222.224c86.4-86.4,159.2-164,192-210.4c-56,23.2-148,81.6-234.4,168"
       id="path43" />
    <path
       style="fill:#E28305;"
       d="M33.504,370.224c46.4-38.4,107.2-96.8,173.6-163.2s124.8-127.2,163.2-173.6   c-54.4,30.4-124,80-190.4,146.4S63.904,315.824,33.504,370.224z"
       id="path45" />
  </g>
  <g
     id="g53">
    <path
       style="fill:#D87600;"
       d="M207.104,207.024c66.4-66.4,124.8-127.2,163.2-173.6c-54.4,30.4-124,80-190.4,146.4"
       id="path49" />
    <path
       style="fill:#D87600;"
       d="M70.304,311.024c36.8-33.6,78.4-73.6,122.4-117.6s84.8-85.6,117.6-122.4   c-40.8,28-86.4,64.8-130.4,108.8S99.104,269.424,70.304,311.024z"
       id="path51" />
  </g>
  <path
     style="fill:#D66600;"
     d="M192.704,192.624c44-44,84.8-85.6,117.6-122.4c-40.8,28.8-86.4,65.6-130.4,109.6"
     id="path55" />
  <path
     style="fill:#555B59;"
     d="M167.904,139.824c3.2,3.2,3.2,8.8,0,12.8l-13.6,13.6c-3.2,3.2-8.8,3.2-12.8,0l0,0  c-3.2-3.2-3.2-8.8,0-12.8l13.6-13.6C158.304,136.624,163.904,136.624,167.904,139.824L167.904,139.824z"
     id="path57" />
  <path
     style="fill:#484F4D;"
     d="M155.104,139.824c3.2-3.2,8.8-3.2,12.8,0l0,0c3.2,3.2,3.2,8.8,0,12.8l-13.6,13.6  c-3.2,3.2-8.8,3.2-12.8,0l0,0"
     id="path59" />
  <path
     style="fill:#555B59;"
     d="M156.704,135.824c0.8,0.8,0.8,2.4,0,3.2l-15.2,15.2c-0.8,0.8-2.4,0.8-3.2,0l0,0  c-0.8-0.8-0.8-2.4,0-3.2l15.2-15.2C153.504,135.024,155.104,135.024,156.704,135.824L156.704,135.824z"
     id="path61" />
  <circle
     style="fill:#979B9E;"
     cx="360.704"
     cy="360.624"
     r="28.8"
     id="circle63" />
  <circle
     style="fill:#ABB3B7;"
     cx="360.704"
     cy="360.624"
     r="12.8"
     id="circle65" />
  <metadata
     id="metadata4396">
    <rdf:RDF>
      <cc:Work
         rdf:about="">
        <dc:title />
        <dc:format>image/svg+xml</dc:format>
        <dc:type
           rdf:resource="http://purl.org/dc/dcmitype/StillImage" />
      </cc:Work>
    </rdf:RDF>
  </metadata>
</svg>
