<?xml version="1.0" encoding="UTF-8" standalone="no"?>
<!-- Created with Inkscape (http://www.inkscape.org/) -->

<svg
   xmlns:dc="http://purl.org/dc/elements/1.1/"
   xmlns:cc="http://creativecommons.org/ns#"
   xmlns:rdf="http://www.w3.org/1999/02/22-rdf-syntax-ns#"
   xmlns:svg="http://www.w3.org/2000/svg"
   xmlns="http://www.w3.org/2000/svg"
   xmlns:sodipodi="http://sodipodi.sourceforge.net/DTD/sodipodi-0.dtd"
   xmlns:inkscape="http://www.inkscape.org/namespaces/inkscape"
   width="297mm"
   height="420mm"
   viewBox="0 0 1122.5197 1587.4016"
   version="1.1"
   id="svg8"
   inkscape:version="0.92.2 (5c3e80d, 2017-08-06)"
   sodipodi:docname="nom.svg">
  <defs
     id="defs2" />
  <sodipodi:namedview
     id="base"
     pagecolor="#ffffff"
     bordercolor="#666666"
     borderopacity="1.0"
     inkscape:pageopacity="0.0"
     inkscape:pageshadow="2"
     inkscape:zoom="0.70710678"
     inkscape:cx="-247.68013"
     inkscape:cy="1120.5454"
     inkscape:document-units="mm"
     inkscape:current-layer="svg8"
     showgrid="false"
     inkscape:window-width="2560"
     inkscape:window-height="1017"
     inkscape:window-x="-8"
     inkscape:window-y="-8"
     inkscape:window-maximized="1"
     units="mm"
     inkscape:snap-others="true"
     inkscape:snap-to-guides="true"
     inkscape:snap-grids="true"
     inkscape:object-nodes="false"
     inkscape:snap-nodes="false"
     inkscape:snap-global="true"
     inkscape:snap-page="false" />
  <g
     id="g59"
     transform="matrix(-0.22954202,-0.97329876,-0.97329876,0.22954202,1171.5233,997.97716)">
    <path
       style="fill:#abb3b7"
       d="m 558.97652,324.08008 98.39959,-0.28309 c 7.99996,-0.023 13.61835,6.36084 13.63907,13.56081 0.023,7.99997 -6.36085,13.61836 -13.56082,13.63907 l -98.39959,0.2831 z"
       id="path27"
       inkscape:connector-curvature="0" />
    <path
       style="fill:#abb3b7"
       d="m 685.71532,321.93786 c -5.61609,-5.58387 -14.41606,-5.55855 -19.19992,0.0552 v 0 c -5.58387,5.61609 -5.55855,14.41606 0.0552,19.19992 L 798.14986,472.815 c 5.61608,5.58387 14.41605,5.55855 19.19992,-0.0552 v 0 c 5.58386,-5.61609 5.55854,-14.41606 -0.0552,-19.19992 z"
       id="path30"
       inkscape:connector-curvature="0" />
    <circle
       r="28.799999"
       transform="matrix(-0.00287701,-0.99999586,-0.99999586,0.00287701,0,0)"
       id="circle34"
       cy="-673.37622"
       cx="-339.59863"
       style="fill:#979b9e" />
    <circle
       r="12.8"
       transform="matrix(-0.00287701,-0.99999586,-0.99999586,0.00287701,0,0)"
       id="circle36"
       cy="-673.37622"
       cx="-339.59863"
       style="fill:#abb3b7" />
  </g>
  <g
     id="tom_1"
     transform="translate(75.20097,83.703959)">
    <g
       id="g7">
      <path
         style="fill:#a1acad"
         d="M 501.918,149.213 H 10.082 c -2.846,0 -5.153,-2.307 -5.153,-5.153 V 98.43 c 0,-2.846 2.307,-5.153 5.153,-5.153 h 491.836 c 2.846,0 5.153,2.307 5.153,5.153 v 45.63 c 0,2.846 -2.307,5.153 -5.153,5.153 z"
         id="path4"
         inkscape:connector-curvature="0" />
      <path
         id="proba"
         style="fill:#a1acad"
         d="M 501.918,418.723 H 10.082 c -2.846,0 -5.153,-2.307 -5.153,-5.153 v -45.63 c 0,-2.846 2.307,-5.153 5.153,-5.153 h 491.836 c 2.846,0 5.153,2.307 5.153,5.153 v 45.63 c 0,2.846 -2.307,5.153 -5.153,5.153 z"
         inkscape:connector-curvature="0" />
    </g>
    <g
       id="g13">
      <path
         style="fill:#819696"
         d="M 501.918,149.213 H 446.899 V 93.277 h 55.019 c 2.846,0 5.153,2.307 5.153,5.153 v 45.63 c 0,2.846 -2.307,5.153 -5.153,5.153 z"
         id="path9"
         inkscape:connector-curvature="0" />
      <path
         style="fill:#819696"
         d="m 501.918,418.723 h -55.019 v -55.936 h 55.019 c 2.846,0 5.153,2.307 5.153,5.153 v 45.63 c 0,2.846 -2.307,5.153 -5.153,5.153 z"
         id="path11"
         inkscape:connector-curvature="0" />
    </g>
    <g
       id="g23">
      <path
         style="fill:#a1acad"
         d="M 26.732,225.115 H 5.153 C 2.307,225.115 0,222.808 0,219.962 v -30.463 c 0,-2.846 2.307,-5.153 5.153,-5.153 h 21.579 z"
         id="path15"
         inkscape:connector-curvature="0" />
      <path
         style="fill:#a1acad"
         d="M 26.732,328.144 H 5.153 C 2.307,328.144 0,325.837 0,322.991 v -30.463 c 0,-2.846 2.307,-5.153 5.153,-5.153 h 21.579 z"
         id="path17"
         inkscape:connector-curvature="0" />
      <path
         style="fill:#a1acad"
         d="m 506.847,225.115 h -21.579 v -40.769 h 21.579 c 2.846,0 5.153,2.307 5.153,5.153 v 30.463 c 0,2.846 -2.307,5.153 -5.153,5.153 z"
         id="path19"
         inkscape:connector-curvature="0" />
      <path
         style="fill:#a1acad"
         d="m 506.847,328.144 h -21.579 v -40.769 h 21.579 c 2.846,0 5.153,2.307 5.153,5.153 v 30.463 c 0,2.846 -2.307,5.153 -5.153,5.153 z"
         id="path21"
         inkscape:connector-curvature="0" />
    </g>
    <rect
       x="26.732"
       y="149.21001"
       style="fill:#d8362a"
       width="458.54001"
       height="213.60001"
       id="rect25" />
    <rect
       x="446.89999"
       y="149.3"
       style="fill:#b72020"
       width="38.369999"
       height="213.50999"
       id="rect27" />
    <g
       id="g37">
      <path
         style="fill:#ffd15c"
         d="m 181.225,174.286 h -4.55 V 133.44 c 0,-4.267 -3.459,-7.726 -7.726,-7.726 -4.267,0 -7.726,3.459 -7.726,7.726 v 40.846 h -2.919 c -2.846,0 -5.153,2.307 -5.153,5.153 v 39.537 c 0,2.846 2.307,5.153 5.153,5.153 h 22.922 c 2.846,0 5.153,-2.307 5.153,-5.153 V 179.44 c -0.001,-2.846 -2.308,-5.154 -5.154,-5.154 z"
         id="path29"
         inkscape:connector-curvature="0" />
      <path
         style="fill:#ffd15c"
         d="m 353.697,174.286 h -3.735 V 133.44 c 0,-4.267 -3.459,-7.726 -7.726,-7.726 -4.267,0 -7.726,3.459 -7.726,7.726 v 40.846 h -3.735 c -2.846,0 -5.153,2.307 -5.153,5.153 v 39.537 c 0,2.846 2.307,5.153 5.153,5.153 h 22.922 c 2.846,0 5.153,-2.307 5.153,-5.153 V 179.44 c 0,-2.846 -2.307,-5.154 -5.153,-5.154 z"
         id="path31"
         inkscape:connector-curvature="0" />
      <path
         style="fill:#ffd15c"
         d="m 353.697,287.894 h -22.922 c -2.846,0 -5.153,2.307 -5.153,5.153 v 39.537 c 0,2.846 2.307,5.153 5.153,5.153 h 3.735 v 39.628 c 0,4.267 3.459,7.726 7.726,7.726 4.267,0 7.726,-3.459 7.726,-7.726 v -39.628 h 3.735 c 2.846,0 5.153,-2.307 5.153,-5.153 v -39.537 c 0,-2.846 -2.307,-5.153 -5.153,-5.153 z"
         id="path33"
         inkscape:connector-curvature="0" />
      <path
         style="fill:#ffd15c"
         d="m 181.225,287.894 h -22.922 c -2.846,0 -5.153,2.307 -5.153,5.153 v 39.537 c 0,2.846 2.307,5.153 5.153,5.153 h 3.735 v 39.628 c 0,4.267 3.459,7.726 7.726,7.726 4.267,0 7.726,-3.459 7.726,-7.726 v -39.628 h 3.735 c 2.846,0 5.153,-2.307 5.153,-5.153 v -39.537 c 0,-2.846 -2.307,-5.153 -5.153,-5.153 z"
         id="path35"
         inkscape:connector-curvature="0" />
    </g>
    <g
       id="g45">
      <circle
         style="fill:#b72020"
         cx="89.080002"
         cy="281.29999"
         r="8.5880003"
         id="circle39" />
      <circle
         style="fill:#b72020"
         cx="121.22"
         cy="255.25"
         r="8.5880003"
         id="circle41" />
      <circle
         style="fill:#b72020"
         cx="89.080002"
         cy="232.72"
         r="8.5880003"
         id="circle43" />
    </g>
  </g>
  <metadata
     id="metadata4396">
    <rdf:RDF>
      <cc:Work
         rdf:about="">
        <dc:title />
        <dc:format>image/svg+xml</dc:format>
        <dc:type
           rdf:resource="http://purl.org/dc/dcmitype/StillImage" />
      </cc:Work>
    </rdf:RDF>
  </metadata>
</svg>
