<?xml version="1.0" encoding="UTF-8" standalone="no"?>
<!-- Created with Inkscape (http://www.inkscape.org/) -->

<svg
   xmlns:dc="http://purl.org/dc/elements/1.1/"
   xmlns:cc="http://creativecommons.org/ns#"
   xmlns:rdf="http://www.w3.org/1999/02/22-rdf-syntax-ns#"
   xmlns:svg="http://www.w3.org/2000/svg"
   xmlns="http://www.w3.org/2000/svg"
   xmlns:sodipodi="http://sodipodi.sourceforge.net/DTD/sodipodi-0.dtd"
   xmlns:inkscape="http://www.inkscape.org/namespaces/inkscape"
   width="297mm"
   height="420mm"
   viewBox="0 0 1122.5197 1587.4016"
   version="1.1"
   id="svg8"
   inkscape:version="0.92.2 (5c3e80d, 2017-08-06)"
   sodipodi:docname="snare.svg">
  <defs
     id="defs2" />
  <sodipodi:namedview
     id="base"
     pagecolor="#ffffff"
     bordercolor="#666666"
     borderopacity="1.0"
     inkscape:pageopacity="0.0"
     inkscape:pageshadow="2"
     inkscape:zoom="1.28"
     inkscape:cx="973.64796"
     inkscape:cy="1277.1567"
     inkscape:document-units="mm"
     inkscape:current-layer="svg8"
     showgrid="true"
     inkscape:window-width="2560"
     inkscape:window-height="1017"
     inkscape:window-x="-8"
     inkscape:window-y="-8"
     inkscape:window-maximized="1"
     units="mm"
     inkscape:snap-others="true"
     inkscape:snap-to-guides="true"
     inkscape:snap-grids="true"
     inkscape:object-nodes="false"
     inkscape:snap-nodes="false"
     inkscape:snap-global="true"
     inkscape:snap-page="false">
    <inkscape:grid
       type="xygrid"
       id="grid88" />
  </sodipodi:namedview>
  <g
     id="g139">
    <path
       id="path21-7-2-8"
       d="m 829.20263,236.64354 c -0.005,-7.1842 6.72608,-13.02608 15.10765,-13.03195 8.38157,-0.006 15.12085,5.82658 15.12587,13.01078 0.005,7.18421 -6.72607,13.02609 -15.10764,13.03196 -8.23201,-0.14391 -15.12085,-5.82659 -15.12588,-13.01079 z"
       style="fill:#d66600;stroke-width:0.26458332"
       inkscape:connector-curvature="0" />
    <path
       id="path23-0-9"
       d="m 844.47808,249.50455 c -8.38158,0.006 -15.12085,-5.82658 -15.12588,-13.01079 -0.005,-7.1842 6.72607,-13.02608 15.10765,-13.03195"
       style="fill:#c65b02;stroke-width:0.26458332"
       inkscape:connector-curvature="0" />
    <path
       id="path25-3-1"
       d="m 829.20285,236.94288 c 0.15459,7.03443 6.89365,12.56754 15.12566,12.71145 1.19736,-8.5e-4 2.24495,-0.15125 3.29254,-0.30165 v 0 l -15.42688,-15.40531 z"
       style="fill:#ad500b;stroke-width:0.26458332"
       inkscape:connector-curvature="0" />
    <path
       id="path27-2-1-3"
       d="m 757.49822,219.48156 c -0.005,-6.58555 38.90834,-8.70817 86.80305,-8.74167 47.89469,-0.0335 86.96015,1.88486 86.8152,8.62016 0.15438,6.73508 -38.89998,20.68182 -86.79467,20.71534 -47.89468,0.0335 -86.96851,-13.85851 -86.82358,-20.59383 z"
       style="fill:#ffd41d;stroke-width:0.26458332"
       inkscape:connector-curvature="0" />
    <path
       id="path29-77-8-2"
       d="m 757.49885,220.37959 c -0.005,-6.58555 38.90834,-8.70818 86.80305,-8.74167 47.89469,-0.0335 86.96015,1.88486 86.8152,8.62015 0.15438,6.73509 -38.7502,20.83139 -86.79467,20.71534 -48.04425,0.1833 -86.96851,-13.85851 -86.82358,-20.59382 z"
       style="fill:#ffac1a;stroke-width:0.26458332"
       inkscape:connector-curvature="0" />
    <g
       id="g35-3-4"
       transform="matrix(-0.18721956,-0.18695768,0.18695768,-0.18721956,844.3845,308.27442)">
      <path
         id="path31-4-1-6"
         d="m 179.904,179.824 c 128,-128.8 269.6,-195.2 287.2,-176.8 17.6,17.6 -80.8,127.2 -208.8,255.2"
         style="fill:#f29c11"
         inkscape:connector-curvature="0" />
      <path
         id="path33-0-2-3"
         d="m 447.104,0.624 c -46.4,8.8 -161.6,72.8 -267.2,179.2 -106.4,105.6 -170.4,220.8 -179.2,267.2 39.2,-16 132,-102.4 238.4,-208 106.4,-105.6 192,-199.2 208,-238.4 z"
         style="fill:#f29c11"
         inkscape:connector-curvature="0" />
    </g>
    <path
       inkscape:connector-curvature="0"
       style="fill:#e88c07;stroke-width:0.26458332"
       d="m 844.30693,218.82212 c -39.81246,0.0279 -73.18813,1.39826 -83.51238,5.74595 10.33221,7.0273 43.8652,16.58278 83.52788,16.40535"
       id="path37-6-2" />
    <path
       inkscape:connector-curvature="0"
       style="fill:#e88c07;stroke-width:0.26458332"
       d="m 919.5982,228.49804 c -14.96898,-2.6836 -43.10774,-3.56193 -75.43665,-3.53931 -32.17914,0.1722 -60.31664,1.08992 -75.13227,3.64469 14.82171,6.12614 42.96424,12.39262 75.29315,12.37 32.32891,-0.0226 60.46264,-6.3285 75.27577,-12.47538 z"
       id="path39-9-2" />
    <g
       id="g47-8-0"
       transform="matrix(-0.18721956,-0.18695768,0.18695768,-0.18721956,844.3845,308.27442)">
      <path
         id="path43-3-4"
         d="m 222.304,222.224 c 86.4,-86.4 159.2,-164 192,-210.4 -56,23.2 -148,81.6 -234.4,168"
         style="fill:#e28305"
         inkscape:connector-curvature="0" />
      <path
         id="path45-3-2"
         d="m 33.504,370.224 c 46.4,-38.4 107.2,-96.8 173.6,-163.2 66.4,-66.4 124.8,-127.2 163.2,-173.6 -54.4,30.4 -124,80 -190.4,146.4 -66.4,66.4 -116,136 -146.4,190.4 z"
         style="fill:#e28305"
         inkscape:connector-curvature="0" />
    </g>
    <path
       inkscape:connector-curvature="0"
       style="fill:#d87600;stroke-width:0.26458332"
       d="m 844.31531,230.79579 c -24.84537,0.0174 -47.14602,0.48201 -63.01009,1.98983 15.86826,4.47902 38.17184,8.20518 63.01721,8.1878"
       id="path49-9-5" />
    <path
       inkscape:connector-curvature="0"
       style="fill:#d87600;stroke-width:0.26458332"
       d="m 889.37054,236.90077 c -13.17146,-0.58946 -28.4381,-0.87812 -44.9019,-0.8666 -16.46379,0.0115 -31.87979,0.17198 -44.90064,0.92945 12.87338,2.38573 28.29063,4.02132 44.75443,4.0098 16.4638,-0.0115 31.87875,-1.6687 45.04811,-4.07265 z"
       id="path51-5-1" />
    <path
       id="path55-8-9"
       d="m 844.31908,236.18395 c -16.4638,0.0115 -31.8798,0.17198 -44.90064,0.92945 13.02294,2.23595 28.4402,3.87154 44.90399,3.86001"
       style="fill:#d66600;stroke-width:0.26458332"
       inkscape:connector-curvature="0" />
    <path
       id="path57-7-7"
       d="m 839.09076,250.70569 c -8.4e-4,-1.19737 1.04612,-2.24579 2.39306,-2.39642 l 5.08881,-0.004 c 1.19736,-8.5e-4 2.2458,1.04612 2.3964,2.39305 v 0 c 8.4e-4,1.19737 -1.04612,2.2458 -2.39306,2.39642 l -5.0888,0.004 c -1.19737,8.3e-4 -2.2458,-1.04612 -2.39641,-2.39306 z"
       style="fill:#555b59;stroke-width:0.26458332"
       inkscape:connector-curvature="0" />
  </g>
  <metadata
     id="metadata4396">
    <rdf:RDF>
      <cc:Work
         rdf:about="">
        <dc:title />
        <dc:format>image/svg+xml</dc:format>
        <dc:type
           rdf:resource="http://purl.org/dc/dcmitype/StillImage" />
      </cc:Work>
    </rdf:RDF>
  </metadata>
</svg>
