<?xml version="1.0" encoding="iso-8859-1"?>
<!-- Generator: Adobe Illustrator 19.0.0, SVG Export Plug-In . SVG Version: 6.00 Build 0)  -->
<svg version="1.1" id="Layer_1" xmlns="http://www.w3.org/2000/svg" xmlns:xlink="http://www.w3.org/1999/xlink" x="0px" y="0px"
	 viewBox="0 0 512 512" style="enable-background:new 0 0 512 512;" xml:space="preserve">
<g>
	<g>
		<path d="M480.91,168.212v-3.968c0-10.697-8.703-19.399-19.399-19.399H357.617c-11.624-13.722-34.883-24-63.524-28.858v-11.063
			c0-9.701-6.373-17.935-15.148-20.753V22.944C278.945,10.293,268.652,0,256,0c-12.652,0-22.944,10.293-22.944,22.944V84.17
			c-8.776,2.82-15.148,11.053-15.148,20.753v11.009c-28.752,4.827-51.851,15.108-63.522,28.911H50.49
			c-10.697,0-19.399,8.703-19.399,19.4v3.968c0,10.697,8.703,19.4,19.399,19.4h30.098c4.2,0,7.605-3.404,7.605-7.605
			c0-4.201-3.405-7.605-7.605-7.605H50.489c-2.271,0-4.19-1.919-4.19-4.191v-3.968c0-2.271,1.919-4.191,4.19-4.191l411.021,0.001
			c2.271,0,4.19,1.919,4.19,4.19v3.968c0,2.271-1.919,4.191-4.19,4.191H159.168c-4.2,0-7.605,3.404-7.605,7.605
			c0,4.201,3.405,7.605,7.605,7.605h73.888v8.321H50.489c-10.697,0-19.399,8.702-19.399,19.399v3.969
			c0,10.697,8.703,19.399,19.399,19.399h103.893c13.613,16.07,43.187,27.418,78.673,30.864v219.492
			C233.056,501.708,243.348,512,256,512c12.652,0,22.945-10.292,22.945-22.944V269.585c35.698-3.413,65.014-14.734,78.672-30.886
			h47.433c4.2,0,7.605-3.404,7.605-7.605c0-4.201-3.405-7.605-7.605-7.605H50.489c-2.271,0-4.19-1.919-4.19-4.19v-3.969
			c0-2.27,1.919-4.19,4.19-4.19H271.28c0.02,0,0.039,0.003,0.059,0.003s0.039-0.003,0.059-0.003H461.51
			c2.271,0,4.19,1.919,4.19,4.191v3.968c0,2.271-1.919,4.191-4.19,4.191h-29.591c-4.2,0-7.605,3.404-7.605,7.605
			c0,4.201,3.405,7.605,7.605,7.605h29.592c10.697,0,19.399-8.703,19.399-19.4v-3.968c0-10.697-8.703-19.4-19.399-19.4H278.945
			v-8.321h182.566v0C472.208,187.612,480.91,178.909,480.91,168.212z M248.265,22.944c0-4.266,3.47-7.735,7.735-7.735
			c4.266,0,7.735,3.47,7.735,7.735v60.181h-15.471V22.944z M239.707,98.333h32.587c3.634,0,6.591,2.957,6.591,6.591v9.05
			c-7.404-0.717-15.058-1.098-22.884-1.098c-7.848,0-15.499,0.373-22.884,1.077v-9.029h-0.001
			C233.116,101.29,236.073,98.333,239.707,98.333z M178.226,144.846c17.59-10.247,46.521-16.76,77.774-16.76
			c30.823,0,59.896,6.543,77.619,16.76H178.226z M263.735,489.056c0,4.266-3.47,7.735-7.735,7.735c-4.266,0-7.735-3.47-7.735-7.735
			V270.54c2.559,0.081,5.137,0.128,7.735,0.128c2.602,0,5.178-0.048,7.735-0.127V489.056z M333.775,238.699
			c-17.59,10.247-46.522,16.759-77.775,16.759c-30.823,0-59.896-6.543-77.619-16.759H333.775z M263.735,195.933h-15.471v-8.321
			h15.471V195.933z"/>
	</g>
</g>
<g>
	<g>
		<path d="M132.299,172.403H105.43c-4.2,0-7.605,3.404-7.605,7.605c0,4.201,3.405,7.605,7.605,7.605h26.869
			c4.2,0,7.605-3.404,7.605-7.605C139.904,175.806,136.499,172.403,132.299,172.403z"/>
	</g>
</g>
<g>
</g>
<g>
</g>
<g>
</g>
<g>
</g>
<g>
</g>
<g>
</g>
<g>
</g>
<g>
</g>
<g>
</g>
<g>
</g>
<g>
</g>
<g>
</g>
<g>
</g>
<g>
</g>
<g>
</g>
</svg>
