<?xml version="1.0" encoding="iso-8859-1"?>
<!-- Generator: Adobe Illustrator 19.0.0, SVG Export Plug-In . SVG Version: 6.00 Build 0)  -->
<svg version="1.1" id="Capa_1" xmlns="http://www.w3.org/2000/svg" xmlns:xlink="http://www.w3.org/1999/xlink" x="0px" y="0px"
	 viewBox="0 0 512.204 512.204" style="enable-background:new 0 0 512.204 512.204;" xml:space="preserve">
<path style="fill:#FFD15C;" d="M507.938,38.585l-213.333,124.8c-9.6,5.333-22.4,2.133-27.733-7.467l0,0
	c-5.333-9.6-1.067-22.4,9.6-26.667l222.933-105.6c4.267-2.133,9.6,0,11.733,4.267l0,0C513.271,31.118,512.204,36.452,507.938,38.585
	z"/>
<ellipse transform="matrix(-0.4662 -0.8847 0.8847 -0.4662 284.9789 464.6559)" style="fill:#415A6B;" cx="282.674" cy="146.351" rx="37.334" ry="50.134"/>
<path style="fill:#FFD15C;" d="M7.671,18.318l241.067,55.467c10.667,2.133,21.333-4.267,23.467-16l0,0
	c2.133-10.667-5.333-21.333-17.067-23.467L10.871,0.185c-5.333-1.067-9.6,3.2-10.667,7.467l0,0
	C-0.862,11.918,2.338,17.252,7.671,18.318z"/>
<path style="fill:#415A6B;" d="M205.004,44.985c-3.2,20.267,14.933,41.6,42.667,45.867c26.667,5.333,51.2-6.4,55.467-27.733
	c3.2-20.267-14.933-41.6-42.667-45.867S209.271,24.718,205.004,44.985z"/>
<polygon style="fill:#F3705A;" points="491.938,491.918 23.671,491.918 20.471,218.852 491.938,218.852 "/>
<polygon style="fill:#415A6B;" points="36.471,475.918 122.871,239.118 201.804,475.918 226.338,475.918 305.271,240.185 
	385.271,475.918 409.804,475.918 497.271,224.185 483.404,224.185 397.004,471.652 314.871,224.185 296.738,224.185 
	214.604,470.585 131.404,224.185 113.271,224.185 22.604,475.918 "/>
<g>
	<path style="fill:#F3F3F3;" d="M491.938,239.118H20.471c-10.667,0-20.267-8.533-20.267-20.267s8.533-20.267,20.267-20.267h471.467
		c10.667,0,20.267,8.533,20.267,20.267S503.671,239.118,491.938,239.118z"/>
	<path style="fill:#F3F3F3;" d="M491.938,512.185H23.671c-10.667,0-20.267-8.533-20.267-20.267c0-10.667,8.533-20.267,20.267-20.267
		h468.267c10.667,0,20.267,8.533,20.267,20.267S503.671,512.185,491.938,512.185z"/>
</g>
<g>
</g>
<g>
</g>
<g>
</g>
<g>
</g>
<g>
</g>
<g>
</g>
<g>
</g>
<g>
</g>
<g>
</g>
<g>
</g>
<g>
</g>
<g>
</g>
<g>
</g>
<g>
</g>
<g>
</g>
</svg>
