<?xml version="1.0" encoding="iso-8859-1"?>
<!-- Generator: Adobe Illustrator 19.0.0, SVG Export Plug-In . SVG Version: 6.00 Build 0)  -->
<svg version="1.1" id="Capa_1" xmlns="http://www.w3.org/2000/svg" xmlns:xlink="http://www.w3.org/1999/xlink" x="0px" y="0px"
	 viewBox="0 0 512 512" style="enable-background:new 0 0 512 512;" xml:space="preserve">
<g>
	<path style="fill:#676775;" d="M431.905,356.945v84.085c0,4.199,3.405,7.604,7.604,7.604c4.199,0,7.604-3.405,7.604-7.604v-84.085
		H431.905z"/>
	<path style="fill:#676775;" d="M447.113,286.132v-70.179c0-4.199-3.405-7.604-7.604-7.604c-4.199,0-7.604,3.405-7.604,7.604v70.179
		H447.113z"/>
	<path style="fill:#676775;" d="M66.915,240.69v-51.098c0-4.199-3.405-7.604-7.604-7.604s-7.604,3.405-7.604,7.604v51.098H66.915z"
		/>
</g>
<rect x="51.707" y="193.141" style="fill:#4C4C59;" width="15.208" height="15.208"/>
<g>
	<path style="fill:#676775;" d="M51.707,306.511V441.03c0,4.199,3.405,7.604,7.604,7.604s7.604-3.405,7.604-7.604V306.511H51.707z"
		/>
	<path style="fill:#676775;" d="M177.933,448.634c-1.92,0-3.843-0.723-5.322-2.174c-2.999-2.939-3.048-7.754-0.108-10.753
		l25.483-26.001c2.939-2.999,7.754-3.049,10.753-0.108c2.999,2.939,3.048,7.754,0.108,10.753l-25.483,26.001
		C181.875,447.871,179.904,448.634,177.933,448.634z"/>
	<path style="fill:#676775;" d="M342.178,448.634c-1.972,0-3.942-0.761-5.431-2.281l-25.483-26.001
		c-2.939-2.999-2.892-7.814,0.108-10.753c2.999-2.939,7.814-2.892,10.753,0.108l25.483,26.001c2.939,2.999,2.892,7.814-0.108,10.753
		C346.021,447.911,344.099,448.634,342.178,448.634z"/>
</g>
<g>
	<path style="fill:#4C4C59;" d="M322.126,409.705c-2.939-3-7.754-3.048-10.753-0.108s-3.048,7.754-0.108,10.753l8.232,8.399
		c4.548-2.516,8.921-5.314,13.095-8.365L322.126,409.705z"/>
	<path style="fill:#4C4C59;" d="M197.985,409.705l-10.466,10.679c4.175,3.052,8.547,5.849,13.095,8.365l8.232-8.399
		c2.939-2.999,2.892-7.814-0.108-10.753C205.739,406.658,200.925,406.706,197.985,409.705z"/>
</g>
<g>
	<rect x="194.712" y="139.913" style="fill:#676775;" width="15.208" height="83.279"/>
	<rect x="304.432" y="117.608" style="fill:#676775;" width="15.208" height="103.414"/>
</g>
<g>
	<rect x="194.712" y="139.913" style="fill:#4C4C59;" width="15.208" height="24.887"/>
	<rect x="431.905" y="356.94" style="fill:#4C4C59;" width="15.208" height="24.821"/>
	<rect x="51.707" y="306.511" style="fill:#4C4C59;" width="15.208" height="24.566"/>
	<rect x="304.432" y="117.608" style="fill:#4C4C59;" width="15.208" height="24.887"/>
	<rect x="431.905" y="217.524" style="fill:#4C4C59;" width="15.208" height="15.208"/>
</g>
<path style="fill:#FFC477;" d="M151.408,154.614c-8.016,0-14.537-6.521-14.537-14.537v-39.869c0-8.016,6.521-14.537,14.537-14.537
	h71.299c8.016,0,14.537,6.521,14.537,14.537v39.869c0,8.016-6.521,14.537-14.537,14.537H151.408z"/>
<path style="fill:#FF3F62;" d="M151.408,154.614c-8.016,0-14.537-6.521-14.537-14.537v-39.869c0-8.016,6.521-14.537,14.537-14.537
	h71.299c8.016,0,14.537,6.521,14.537,14.537v39.869c0,8.016-6.521,14.537-14.537,14.537H151.408z"/>
<path style="fill:#D61841;" d="M166.78,140.077v-39.869c0-8.016,6.521-14.537,14.537-14.537h-29.909
	c-8.016,0-14.537,6.521-14.537,14.537v39.869c0,8.016,6.521,14.537,14.537,14.537h29.909
	C173.301,154.614,166.78,148.093,166.78,140.077z"/>
<path style="fill:#D9CCBC;" d="M136.871,110.963v-10.755c0-8.016,6.521-14.537,14.537-14.537h71.299
	c8.016,0,14.537,6.521,14.537,14.537v10.755H136.871z"/>
<path style="fill:#FF9750;" d="M501.229,269.18H376.94h-29.466v102.4h16.546h51.809h85.399c5.939,0,10.771-4.832,10.771-10.771
	v-80.858C512,274.012,507.168,269.18,501.229,269.18z"/>
<path style="fill:#F97923;" d="M347.475,269.18v102.4h16.546h35.358c11.927-18.963,18.839-41.385,18.839-65.394
	c0-12.889-1.994-25.32-5.683-37.006H376.94H347.475z"/>
<path style="fill:#D9CCBC;" d="M358.691,294.783V269.18h142.538c5.939,0,10.771,4.832,10.771,10.771v14.833H358.691V294.783z"/>
<path style="fill:#C9AD8F;" d="M417.672,294.783c-0.816-8.833-2.549-17.405-5.136-25.603h-35.595h-18.25v25.603H417.672z"/>
<path style="fill:#FF9750;" d="M100.13,223.556H43.303c-6.546,0-11.873,5.327-11.873,11.873v73.583
	c0,6.548,5.327,11.873,11.873,11.873h75.319l46.916-0.735l3.292-3.292v-93.303H100.13z"/>
<path style="fill:#D9CCBC;" d="M31.43,248.751v-13.32c0-6.548,5.327-11.873,11.873-11.873h132.625v25.194H31.43V248.751z"/>
<path style="fill:#C1763E;" d="M260.055,429.37c-67.924,0-123.184-55.261-123.184-123.184s55.261-123.184,123.184-123.184
	S383.24,238.263,383.24,306.186S327.979,429.37,260.055,429.37z"/>
<path style="fill:#FFD278;" d="M260.055,399.968c-51.712,0-93.782-42.07-93.782-93.782s42.07-93.782,93.782-93.782
	s93.782,42.07,93.782,93.782S311.767,399.968,260.055,399.968z"/>
<path style="fill:#FFBF4D;" d="M204.293,320.132c0-51.712,42.07-93.782,93.782-93.782c4.224,0,8.382,0.286,12.459,0.829
	c-14.582-9.349-31.909-14.775-50.479-14.775c-51.712,0-93.782,42.07-93.782,93.782c0,47.488,35.48,86.84,81.323,92.953
	C221.573,382.454,204.293,353.273,204.293,320.132z"/>
<path style="fill:#FF3F62;" d="M290.307,132.309c-8.016,0-14.537-6.521-14.537-14.537V77.903c0-8.016,6.521-14.537,14.537-14.537
	h71.299c8.016,0,14.537,6.521,14.537,14.537v39.869c0,8.016-6.521,14.537-14.537,14.537H290.307z"/>
<path style="fill:#D61841;" d="M305.679,117.772V77.903c0-8.016,6.521-14.537,14.537-14.537h-29.909
	c-8.016,0-14.537,6.521-14.537,14.537v39.869c0,8.016,6.521,14.537,14.537,14.537h29.909
	C312.2,132.309,305.679,125.788,305.679,117.772z"/>
<path style="fill:#D9CCBC;" d="M275.77,88.658V77.903c0-8.016,6.521-14.537,14.537-14.537h71.299
	c8.016,0,14.537,6.521,14.537,14.537v10.755H275.77z"/>
<path style="fill:#C9AD8F;" d="M181.317,85.671h-29.909c-8.016,0-14.537,6.521-14.537,14.537v10.755h29.909v-10.755
	C166.78,92.192,173.301,85.671,181.317,85.671z"/>
<path style="fill:#F97923;" d="M61.339,309.014v-73.583c0-6.548,5.327-11.873,11.873-11.873H43.303
	c-6.546-0.001-11.873,5.326-11.873,11.872v73.583c0,6.548,5.327,11.873,11.873,11.873h29.909
	C66.665,320.887,61.339,315.56,61.339,309.014z"/>
<path style="fill:#C9AD8F;" d="M73.212,223.556H43.303c-6.546,0-11.873,5.327-11.873,11.873v13.32h29.909v-13.32
	C61.339,228.883,66.665,223.556,73.212,223.556z"/>
<g>
	<path style="fill:#9E8261;" d="M260.055,236.737c-4.199,0-7.604,3.405-7.604,7.604c0,4.199,3.405,7.604,7.604,7.604
		c29.909,0,54.242,24.333,54.242,54.242c0,4.199,3.405,7.604,7.604,7.604s7.604-3.405,7.604-7.604
		C329.505,267.892,298.35,236.737,260.055,236.737z"/>
	<path style="fill:#9E8261;" d="M7.604,172.863h103.414c4.199,0,7.604-3.405,7.604-7.604s-3.405-7.604-7.604-7.604H68.555
		c4.199,0,7.604-3.405,7.604-7.604c0-4.199-3.405-7.604-7.604-7.604H50.067c-4.199,0-7.604,3.405-7.604,7.604
		c0,4.199,3.405,7.604,7.604,7.604H7.604c-4.199,0-7.604,3.405-7.604,7.604S3.405,172.863,7.604,172.863z"/>
	<path style="fill:#9E8261;" d="M118.622,189.592c0-4.199-3.405-7.604-7.604-7.604H7.604c-4.199,0-7.604,3.405-7.604,7.604
		s3.405,7.604,7.604,7.604h103.414C115.217,197.196,118.622,193.792,118.622,189.592z"/>
	<path style="fill:#9E8261;" d="M380.198,190.606c0,4.199,3.405,7.604,7.604,7.604h103.414c4.199,0,7.604-3.405,7.604-7.604
		c0-4.199-3.405-7.604-7.604-7.604h-42.463c4.199,0,7.604-3.405,7.604-7.604s-3.405-7.604-7.604-7.604h-18.489
		c-4.199,0-7.604,3.405-7.604,7.604s3.405,7.604,7.604,7.604h-42.463C383.603,183.002,380.198,186.407,380.198,190.606z"/>
	<path style="fill:#9E8261;" d="M491.216,207.335H387.802c-4.199,0-7.604,3.405-7.604,7.604c0,4.199,3.405,7.604,7.604,7.604
		h103.414c4.199,0,7.604-3.405,7.604-7.604C498.82,210.739,495.415,207.335,491.216,207.335z"/>
</g>
<g>
	<path style="fill:#705336;" d="M50.067,157.655h18.489c0.303,0,0.6-0.022,0.894-0.057c-3.778-0.443-6.71-3.65-6.71-7.547
		s2.932-7.104,6.71-7.547c-0.294-0.034-0.591-0.057-0.894-0.057H50.067c-4.199,0-7.604,3.405-7.604,7.604
		C42.463,154.251,45.867,157.655,50.067,157.655z"/>
	<path style="fill:#705336;" d="M20.277,165.259c0-4.199,3.405-7.604,7.604-7.604H7.604c-4.199,0-7.604,3.405-7.604,7.604
		s3.405,7.604,7.604,7.604h20.277C23.682,172.863,20.277,169.459,20.277,165.259z"/>
	<path style="fill:#705336;" d="M20.277,189.592c0-4.199,3.405-7.604,7.604-7.604H7.604c-4.199,0-7.604,3.405-7.604,7.604
		s3.405,7.604,7.604,7.604h20.277C23.682,197.196,20.277,193.792,20.277,189.592z"/>
	<path style="fill:#705336;" d="M430.265,183.002h18.489c0.303,0,0.6-0.022,0.894-0.057c-3.778-0.443-6.71-3.65-6.71-7.547
		s2.932-7.104,6.71-7.547c-0.294-0.034-0.591-0.057-0.894-0.057h-18.489c-4.199,0-7.604,3.405-7.604,7.604
		S426.065,183.002,430.265,183.002z"/>
	<path style="fill:#705336;" d="M400.475,190.606c0-4.199,3.405-7.604,7.604-7.604h-20.277c-4.199,0-7.604,3.405-7.604,7.604
		c0,4.199,3.405,7.604,7.604,7.604h20.277C403.88,198.21,400.475,194.805,400.475,190.606z"/>
	<path style="fill:#705336;" d="M400.475,214.939c0-4.199,3.405-7.604,7.604-7.604h-20.277c-4.199,0-7.604,3.405-7.604,7.604
		c0,4.199,3.405,7.604,7.604,7.604h20.277C403.88,222.543,400.475,219.138,400.475,214.939z"/>
</g>
<g>
	<path style="fill:#4C4C59;" d="M90.741,433.426H29.909c-4.199,0-7.604,3.405-7.604,7.604c0,4.199,3.405,7.604,7.604,7.604h60.832
		c4.199,0,7.604-3.405,7.604-7.604C98.345,436.83,94.94,433.426,90.741,433.426z"/>
	<path style="fill:#4C4C59;" d="M470.939,433.426h-60.832c-4.199,0-7.604,3.405-7.604,7.604c0,4.199,3.405,7.604,7.604,7.604h60.832
		c4.199,0,7.604-3.405,7.604-7.604C478.543,436.83,475.138,433.426,470.939,433.426z"/>
</g>
<path style="fill:#C9AD8F;" d="M320.216,63.366h-29.909c-8.016,0-14.537,6.521-14.537,14.537v10.755h29.909V77.903
	C305.679,69.888,312.2,63.366,320.216,63.366z"/>
<g>
</g>
<g>
</g>
<g>
</g>
<g>
</g>
<g>
</g>
<g>
</g>
<g>
</g>
<g>
</g>
<g>
</g>
<g>
</g>
<g>
</g>
<g>
</g>
<g>
</g>
<g>
</g>
<g>
</g>
</svg>
