<?xml version="1.0" encoding="iso-8859-1"?>
<!-- Generator: Adobe Illustrator 19.0.0, SVG Export Plug-In . SVG Version: 6.00 Build 0)  -->
<svg version="1.1" id="Layer_1" xmlns="http://www.w3.org/2000/svg" xmlns:xlink="http://www.w3.org/1999/xlink" x="0px" y="0px"
	 viewBox="0 0 511.988 511.988" style="enable-background:new 0 0 511.988 511.988;" xml:space="preserve">
<path style="fill:#ED5564;" d="M501.333,383.99h-20.578c-43.608-26.373-129.169-42.67-224.761-42.67
	c-95.583,0-181.152,16.297-224.76,42.67h-20.57C4.774,383.99,0,388.756,0,394.662v32c0,25.39,27.46,47.186,79.412,62.998
	c47.319,14.391,110.028,22.328,176.582,22.328c66.562,0,129.263-7.938,176.59-22.328c51.937-15.812,79.404-37.608,79.404-62.998v-32
	C511.988,388.756,507.207,383.99,501.333,383.99z"/>
<path style="fill:#DA4453;" d="M490.083,181.332H21.906c-5.891,0-10.664,4.773-10.664,10.664v202.667
	c0,17.656,13.18,42.922,75.983,62.952c45.233,14.42,105.169,22.373,168.769,22.373c63.593,0,123.528-7.953,168.777-22.374
	c62.796-20.03,75.968-45.296,75.968-62.952V191.995C500.739,186.105,495.973,181.332,490.083,181.332z"/>
<path style="fill:#ED5564;" d="M501.333,181.332h-20.578c-43.609-26.367-129.169-42.663-224.761-42.663
	c-95.583,0-181.152,16.296-224.76,42.663h-20.57C4.774,181.332,0,186.105,0,191.996v32c0,25.405,27.46,47.187,79.412,62.998
	c47.319,14.406,110.028,22.327,176.582,22.327c66.562,0,129.263-7.921,176.59-22.327c51.937-15.812,79.404-37.593,79.404-62.998v-32
	C511.988,186.105,507.207,181.332,501.333,181.332z"/>
<path style="fill:#E6E9ED;" d="M255.994,266.658c-65.53,0-127.138-7.766-173.472-21.867c-46.335-14.101-71.858-32.851-71.858-52.795
	s25.523-38.694,71.858-52.795c46.334-14.103,107.942-21.868,173.472-21.868s127.138,7.765,173.465,21.867
	c46.343,14.101,71.874,32.851,71.874,52.795s-25.531,38.694-71.874,52.795C383.132,258.892,321.524,266.658,255.994,266.658z"/>
<path style="fill:#ED5564;" d="M432.584,128.997c-47.327-14.398-110.028-22.327-176.59-22.327
	c-66.553,0-129.262,7.929-176.582,22.327C27.46,144.809,0,166.598,0,191.996c0,25.406,27.46,47.186,79.412,62.999
	c47.319,14.406,110.028,22.328,176.582,22.328c66.562,0,129.263-7.922,176.59-22.328c51.937-15.812,79.404-37.593,79.404-62.999
	C511.988,166.598,484.52,144.809,432.584,128.997z M478.505,210.378c-11.156,8.852-29.188,17.227-52.14,24.21
	c-45.358,13.804-105.872,21.406-170.371,21.406c-64.506,0-125.013-7.602-170.371-21.406c-22.953-6.984-40.983-15.359-52.14-24.21
	c-8.062-6.391-12.148-12.578-12.148-18.382s4.086-11.984,12.148-18.382c11.156-8.852,29.187-17.218,52.14-24.21
	c45.358-13.805,105.864-21.406,170.371-21.406c64.499,0,125.013,7.602,170.371,21.406c22.952,6.992,40.983,15.358,52.14,24.21
	c8.062,6.398,12.141,12.578,12.141,18.382C490.645,197.8,486.567,203.987,478.505,210.378z"/>
<g>
	<path style="fill:#434A54;" d="M138.661,502.91c-5.891,0-10.664-4.781-10.664-10.672V257.58c0-5.891,4.773-10.664,10.664-10.664
		s10.671,4.773,10.671,10.664v234.658C149.332,498.129,144.552,502.91,138.661,502.91z"/>
	<path style="fill:#434A54;" d="M373.335,502.91c-5.906,0-10.687-4.781-10.687-10.672V257.58c0-5.891,4.78-10.664,10.687-10.664
		c5.875,0,10.656,4.773,10.656,10.664v234.658C383.991,498.129,379.21,502.91,373.335,502.91z"/>
</g>
<g>
	<path style="fill:#F4BE8E;" d="M224.175,190.667c-2.32,0-4.656-0.758-6.617-2.312L4.039,19.023
		c-4.617-3.656-5.39-10.367-1.726-14.984c3.656-4.617,10.367-5.39,14.984-1.726l213.518,169.324
		c4.609,3.664,5.391,10.375,1.727,14.992C230.44,189.277,227.323,190.667,224.175,190.667z"/>
	<path style="fill:#F4BE8E;" d="M287.806,190.667c-3.14,0-6.249-1.39-8.358-4.039c-3.672-4.617-2.891-11.328,1.734-14.992
		L494.692,2.313c4.609-3.664,11.327-2.891,14.983,1.726s2.891,11.328-1.719,14.984L294.431,188.355
		C292.462,189.91,290.134,190.667,287.806,190.667z"/>
</g>
<g>
</g>
<g>
</g>
<g>
</g>
<g>
</g>
<g>
</g>
<g>
</g>
<g>
</g>
<g>
</g>
<g>
</g>
<g>
</g>
<g>
</g>
<g>
</g>
<g>
</g>
<g>
</g>
<g>
</g>
</svg>
