<?xml version="1.0" encoding="iso-8859-1"?>
<!-- Generator: Adobe Illustrator 19.0.0, SVG Export Plug-In . SVG Version: 6.00 Build 0)  -->
<svg version="1.1" id="Capa_1" xmlns="http://www.w3.org/2000/svg" xmlns:xlink="http://www.w3.org/1999/xlink" x="0px" y="0px"
	 viewBox="0 0 512 512" style="enable-background:new 0 0 512 512;" xml:space="preserve">
<g>
	<path style="fill:#A1ACAD;" d="M440.117,110.403h-16.679V69.319h16.679c2.801,0,5.072,2.271,5.072,5.072v30.94
		C445.189,108.132,442.918,110.403,440.117,110.403z"/>
	<path style="fill:#A1ACAD;" d="M440.117,251.914h-16.679V210.83h16.679c2.801,0,5.072,2.271,5.072,5.072v30.94
		C445.189,249.643,442.918,251.914,440.117,251.914z"/>
	<path style="fill:#A1ACAD;" d="M88.561,110.403h-16.75c-2.761,0-5-2.239-5-5V74.319c0-2.761,2.239-5,5-5h16.751L88.561,110.403
		L88.561,110.403z"/>
	<path style="fill:#A1ACAD;" d="M88.561,251.914h-16.75c-2.761,0-5-2.239-5-5V215.83c0-2.761,2.239-5,5-5h16.751L88.561,251.914
		L88.561,251.914z"/>
	<path style="fill:#A1ACAD;" d="M434.29,45.512H77.71c-2.801,0-5.072-2.271-5.072-5.072V5.072C72.638,2.271,74.909,0,77.71,0h356.58
		c2.801,0,5.072,2.271,5.072,5.072V40.44C439.362,43.241,437.091,45.512,434.29,45.512z"/>
</g>
<path style="fill:#819696;" d="M434.29,45.512h-44.343V0h44.343c2.801,0,5.072,2.271,5.072,5.072V40.44
	C439.362,43.241,437.091,45.512,434.29,45.512z"/>
<path style="fill:#A1ACAD;" d="M434.29,330.086H77.71c-2.801,0-5.072-2.271-5.072-5.072v-35.368c0-2.801,2.271-5.072,5.072-5.072
	h356.58c2.801,0,5.072,2.271,5.072,5.072v35.368C439.362,327.815,437.091,330.086,434.29,330.086z"/>
<path style="fill:#819696;" d="M434.29,330.086h-44.343v-45.512h44.343c2.801,0,5.072,2.271,5.072,5.072v35.368
	C439.362,327.815,437.091,330.086,434.29,330.086z"/>
<rect x="88.56" y="45.512" style="fill:#D8362A;" width="334.88" height="238.68"/>
<rect x="389.95" y="45.512" style="fill:#B72020;" width="33.491" height="238.68"/>
<g>
	<path style="fill:#FFD15C;" d="M192.781,104.792h-16.892c-2.801,0-5.072-2.271-5.072-5.072V69.31c0-2.801,2.271-5.072,5.072-5.072
		h16.892c2.801,0,5.072,2.271,5.072,5.072v30.41C197.853,102.521,195.582,104.792,192.781,104.792z"/>
	<path style="fill:#FFD15C;" d="M336.111,104.792h-16.892c-2.801,0-5.072-2.271-5.072-5.072V69.31c0-2.801,2.271-5.072,5.072-5.072
		h16.892c2.801,0,5.072,2.271,5.072,5.072v30.41C341.183,102.521,338.912,104.792,336.111,104.792z"/>
	<path style="fill:#FFD15C;" d="M319.219,223.685h16.892c2.801,0,5.072,2.271,5.072,5.072v30.41c0,2.801-2.271,5.072-5.072,5.072
		h-16.892c-2.801,0-5.072-2.271-5.072-5.072v-30.41C314.147,225.955,316.418,223.685,319.219,223.685z"/>
	<path style="fill:#FFD15C;" d="M175.889,223.685h16.892c2.801,0,5.072,2.271,5.072,5.072v30.41c0,2.801-2.271,5.072-5.072,5.072
		h-16.892c-2.801,0-5.072-2.271-5.072-5.072v-30.41C170.817,225.955,173.088,223.685,175.889,223.685z"/>
</g>
<g>
	<circle style="fill:#B72020;" cx="134.71" cy="194.16" r="8.579"/>
	<circle style="fill:#B72020;" cx="166.82" cy="168.14" r="8.579"/>
	<circle style="fill:#B72020;" cx="134.71" cy="145.64" r="8.579"/>
</g>
<g>
	<path style="fill:#FFD15C;" d="M327.167,313.406c-4.142,0-7.5-3.358-7.5-7.5v-41.913c0-4.142,3.358-7.5,7.5-7.5s7.5,3.358,7.5,7.5
		v41.913C334.667,310.048,331.31,313.406,327.167,313.406z"/>
	<path style="fill:#FFD15C;" d="M184.833,313.406c-4.142,0-7.5-3.358-7.5-7.5v-41.913c0-4.142,3.358-7.5,7.5-7.5s7.5,3.358,7.5,7.5
		v41.913C192.333,310.048,188.975,313.406,184.833,313.406z"/>
</g>
<g>
	<path style="fill:#36353A;" d="M84.866,512H55.644c-2.79,0-5.072-2.282-5.072-5.072v-19.553c0-2.79,2.282-5.072,5.072-5.072h29.222
		c2.79,0,5.072,2.282,5.072,5.072v19.553C89.938,509.718,87.656,512,84.866,512z"/>
	<path style="fill:#36353A;" d="M427.134,512h29.222c2.79,0,5.072-2.282,5.072-5.072v-19.553c0-2.79-2.282-5.072-5.072-5.072
		h-29.222c-2.79,0-5.072,2.282-5.072,5.072v19.553C422.062,509.718,424.344,512,427.134,512z"/>
	<path style="fill:#36353A;" d="M270.611,512h-29.222c-2.79,0-5.072-2.282-5.072-5.072v-19.553c0-2.79,2.282-5.072,5.072-5.072
		h29.222c2.79,0,5.072,2.282,5.072,5.072v19.553C275.683,509.718,273.4,512,270.611,512z"/>
	<path style="fill:#36353A;" d="M72.896,493.29c-4.142,0-7.5-3.358-7.5-7.5v-81.089c0-4.836,2.832-9.283,7.215-11.327l43.846-20.462
		V265.66c0-4.142,3.358-7.5,7.5-7.5s7.5,3.358,7.5,7.5v108.844c0,4.837-2.832,9.283-7.215,11.328l-43.846,20.461v79.497
		C80.396,489.932,77.038,493.29,72.896,493.29z"/>
	<path style="fill:#36353A;" d="M439.104,493.29c-4.142,0-7.5-3.358-7.5-7.5v-79.497l-43.847-20.462
		c-4.382-2.044-7.214-6.49-7.214-11.327V265.66c0-4.142,3.358-7.5,7.5-7.5s7.5,3.358,7.5,7.5v107.251l43.847,20.462
		c4.382,2.044,7.214,6.491,7.214,11.327v81.089C446.604,489.932,443.247,493.29,439.104,493.29z"/>
	<path style="fill:#36353A;" d="M256,493.29c-4.142,0-7.5-3.358-7.5-7.5V324c0-4.142,3.358-7.5,7.5-7.5s7.5,3.358,7.5,7.5v161.79
		C263.5,489.932,260.142,493.29,256,493.29z"/>
</g>
<g>
	<path style="fill:#FFD15C;" d="M184.833,78.491c-4.142,0-7.5-3.358-7.5-7.5V29.078c0-4.142,3.358-7.5,7.5-7.5s7.5,3.358,7.5,7.5
		v41.913C192.333,75.133,188.975,78.491,184.833,78.491z"/>
	<path style="fill:#FFD15C;" d="M327.167,78.491c-4.142,0-7.5-3.358-7.5-7.5V29.078c0-4.142,3.358-7.5,7.5-7.5s7.5,3.358,7.5,7.5
		v41.913C334.667,75.133,331.31,78.491,327.167,78.491z"/>
</g>
<g>
</g>
<g>
</g>
<g>
</g>
<g>
</g>
<g>
</g>
<g>
</g>
<g>
</g>
<g>
</g>
<g>
</g>
<g>
</g>
<g>
</g>
<g>
</g>
<g>
</g>
<g>
</g>
<g>
</g>
</svg>
