<?xml version="1.0" encoding="iso-8859-1"?>
<svg version="1.1" id="Capa_1" xmlns="http://www.w3.org/2000/svg" xmlns:xlink="http://www.w3.org/1999/xlink" x="0px" y="0px"
	 viewBox="0 0 512 512" style="enable-background:new 0 0 512 512;" xml:space="preserve">
<g>
	<path style="fill:#A1ACAD;" d="M501.918,149.213H10.082c-2.846,0-5.153-2.307-5.153-5.153V98.43c0-2.846,2.307-5.153,5.153-5.153
		h491.836c2.846,0,5.153,2.307,5.153,5.153v45.63C507.071,146.906,504.764,149.213,501.918,149.213z"/>
	<path id="proba" style="fill:#A1ACAD;" d="M501.918,418.723H10.082c-2.846,0-5.153-2.307-5.153-5.153v-45.63c0-2.846,2.307-5.153,5.153-5.153
		h491.836c2.846,0,5.153,2.307,5.153,5.153v45.63C507.071,416.416,504.764,418.723,501.918,418.723z"/>
</g>
<g>
	<path style="fill:#819696;" d="M501.918,149.213h-55.019V93.277h55.019c2.846,0,5.153,2.307,5.153,5.153v45.63
		C507.071,146.906,504.764,149.213,501.918,149.213z"/>
	<path style="fill:#819696;" d="M501.918,418.723h-55.019v-55.936h55.019c2.846,0,5.153,2.307,5.153,5.153v45.63
		C507.071,416.416,504.764,418.723,501.918,418.723z"/>
</g>
<g>
	<path style="fill:#A1ACAD;" d="M26.732,225.115H5.153c-2.846,0-5.153-2.307-5.153-5.153v-30.463c0-2.846,2.307-5.153,5.153-5.153
		h21.579V225.115z"/>
	<path style="fill:#A1ACAD;" d="M26.732,328.144H5.153c-2.846,0-5.153-2.307-5.153-5.153v-30.463c0-2.846,2.307-5.153,5.153-5.153
		h21.579V328.144z"/>
	<path style="fill:#A1ACAD;" d="M506.847,225.115h-21.579v-40.769h21.579c2.846,0,5.153,2.307,5.153,5.153v30.463
		C512,222.808,509.693,225.115,506.847,225.115z"/>
	<path style="fill:#A1ACAD;" d="M506.847,328.144h-21.579v-40.769h21.579c2.846,0,5.153,2.307,5.153,5.153v30.463
		C512,325.837,509.693,328.144,506.847,328.144z"/>
</g>
<rect x="26.732" y="149.21" style="fill:#D8362A;" width="458.54" height="213.6"/>
<rect x="446.9" y="149.3" style="fill:#B72020;" width="38.37" height="213.51"/>
<g>
	<path style="fill:#FFD15C;" d="M181.225,174.286h-4.55V133.44c0-4.267-3.459-7.726-7.726-7.726s-7.726,3.459-7.726,7.726v40.846
		h-2.919c-2.846,0-5.153,2.307-5.153,5.153v39.537c0,2.846,2.307,5.153,5.153,5.153h22.922c2.846,0,5.153-2.307,5.153-5.153V179.44
		C186.378,176.594,184.071,174.286,181.225,174.286z"/>
	<path style="fill:#FFD15C;" d="M353.697,174.286h-3.735V133.44c0-4.267-3.459-7.726-7.726-7.726s-7.726,3.459-7.726,7.726v40.846
		h-3.735c-2.846,0-5.153,2.307-5.153,5.153v39.537c0,2.846,2.307,5.153,5.153,5.153h22.922c2.846,0,5.153-2.307,5.153-5.153V179.44
		C358.85,176.594,356.543,174.286,353.697,174.286z"/>
	<path style="fill:#FFD15C;" d="M353.697,287.894h-22.922c-2.846,0-5.153,2.307-5.153,5.153v39.537c0,2.846,2.307,5.153,5.153,5.153
		h3.735v39.628c0,4.267,3.459,7.726,7.726,7.726s7.726-3.459,7.726-7.726v-39.628h3.735c2.846,0,5.153-2.307,5.153-5.153v-39.537
		C358.85,290.201,356.543,287.894,353.697,287.894z"/>
	<path style="fill:#FFD15C;" d="M181.225,287.894h-22.922c-2.846,0-5.153,2.307-5.153,5.153v39.537c0,2.846,2.307,5.153,5.153,5.153
		h3.735v39.628c0,4.267,3.459,7.726,7.726,7.726s7.726-3.459,7.726-7.726v-39.628h3.735c2.846,0,5.153-2.307,5.153-5.153v-39.537
		C186.378,290.201,184.071,287.894,181.225,287.894z"/>
</g>
<g>
	<circle style="fill:#B72020;" cx="89.08" cy="281.3" r="8.588"/>
	<circle style="fill:#B72020;" cx="121.22" cy="255.25" r="8.588"/>
	<circle style="fill:#B72020;" cx="89.08" cy="232.72" r="8.588"/>
</g>
<g>
</g>
<g>
</g>
<g>
</g>
<g>
</g>
<g>
</g>
<g>
</g>
<g>
</g>
<g>
</g>
<g>
</g>
<g>
</g>
<g>
</g>
<g>
</g>
<g>
</g>
<g>
</g>
<g>
</g>
</svg>
