<?xml version="1.0" encoding="iso-8859-1"?>
<!-- Generator: Adobe Illustrator 19.0.0, SVG Export Plug-In . SVG Version: 6.00 Build 0)  -->
<svg version="1.1" id="Capa_1" xmlns="http://www.w3.org/2000/svg" xmlns:xlink="http://www.w3.org/1999/xlink" x="0px" y="0px"
	 viewBox="0 0 512 512" style="enable-background:new 0 0 512 512;" xml:space="preserve">
<rect x="427.604" y="191.297" style="fill:#992A2A;" width="67.516" height="286.945"/>
<rect x="16.879" y="191.297" style="fill:#DF3333;" width="444.484" height="286.945"/>
<path style="fill:#EF7F4A;" d="M495.121,5.626h-33.758v33.758h33.758c9.322,0,16.879-7.557,16.879-16.879
	S504.443,5.626,495.121,5.626z"/>
<path style="fill:#E8A44D;" d="M478.242,22.505c0-9.322-7.557-16.879-16.879-16.879H37.357C33.393,2.135,28.204,0,22.505,0
	C10.076,0,0,10.076,0,22.505s10.076,22.505,22.505,22.505c5.698,0,10.887-2.135,14.851-5.626h424.006
	C470.684,39.385,478.242,31.827,478.242,22.505z"/>
<path style="fill:#EF7F4A;" d="M489.495,78.769c-5.698,0-10.887,2.135-14.851,5.626h-4.054v33.758h4.054
	c3.965,3.492,9.153,5.626,14.851,5.626c12.43,0,22.505-10.076,22.505-22.506S501.924,78.769,489.495,78.769z"/>
<path style="fill:#E8A44D;" d="M478.242,101.275c0-6.73-2.971-12.755-7.654-16.879H16.879C7.557,84.396,0,91.953,0,101.275
	s7.557,16.879,16.879,16.879h453.709C475.271,114.03,478.242,108.005,478.242,101.275z"/>
<polygon style="fill:#CCC9C0;" points="478.242,157.538 444.484,185.67 478.242,213.802 512,213.802 512,157.538 "/>
<rect y="157.538" style="fill:#E8E5DA;" width="478.242" height="56.264"/>
<polygon style="fill:#CCC9C0;" points="478.242,455.736 444.484,483.868 478.242,512 512,512 512,455.736 "/>
<rect y="455.736" style="fill:#E8E5DA;" width="478.242" height="56.264"/>
<g>
	<path style="fill:#CCC9C0;" d="M156.132,222.242c-4.661,0-8.44-3.778-8.44-8.44v-22.505c0-4.662,3.779-8.44,8.44-8.44
		c4.661,0,8.44,3.778,8.44,8.44v22.505C164.571,218.464,160.793,222.242,156.132,222.242z"/>
	<path style="fill:#CCC9C0;" d="M355.868,222.242c-4.661,0-8.44-3.778-8.44-8.44v-22.505c0-4.662,3.779-8.44,8.44-8.44
		c4.661,0,8.44,3.778,8.44,8.44v22.505C364.308,218.464,360.529,222.242,355.868,222.242z"/>
	<path style="fill:#CCC9C0;" d="M256,486.681c-4.661,0-8.44-3.778-8.44-8.44v-22.505c0-4.662,3.779-8.44,8.44-8.44
		c4.661,0,8.44,3.778,8.44,8.44v22.505C264.44,482.904,260.661,486.681,256,486.681z"/>
	<path style="fill:#CCC9C0;" d="M56.264,486.681c-4.661,0-8.44-3.778-8.44-8.44v-22.505c0-4.662,3.779-8.44,8.44-8.44
		s8.44,3.778,8.44,8.44v22.505C64.703,482.904,60.925,486.681,56.264,486.681z"/>
	<path style="fill:#CCC9C0;" d="M455.736,486.681c-4.661,0-8.44-3.778-8.44-8.44v-22.505c0-4.662,3.779-8.44,8.44-8.44
		s8.44,3.778,8.44,8.44v22.505C464.176,482.904,460.397,486.681,455.736,486.681z"/>
	<path style="fill:#CCC9C0;" d="M455.736,464.176c-3.417,0-6.497-2.06-7.802-5.22l-92.067-223.035l-92.067,223.035
		c-1.304,3.16-4.384,5.22-7.802,5.22c-3.417,0-6.497-2.06-7.802-5.22l-92.067-223.035L64.065,458.956
		c-1.304,3.16-4.384,5.22-7.802,5.22c-3.417,0-6.497-2.06-7.802-5.22L3.451,349.915c-1.779-4.308,0.272-9.243,4.581-11.021
		c4.311-1.78,9.243,0.271,11.021,4.581l37.211,90.142l92.067-223.035c1.304-3.16,4.384-5.22,7.802-5.22
		c3.417,0,6.497,2.06,7.802,5.22L256,433.618l92.067-223.035c1.304-3.16,4.384-5.22,7.802-5.22s6.497,2.06,7.802,5.22
		l92.067,223.035l37.209-90.141c1.779-4.308,6.715-6.36,11.021-4.581c4.309,1.778,6.359,6.713,4.581,11.021l-45.011,109.04
		C462.234,462.115,459.154,464.176,455.736,464.176z"/>
</g>
<g>
</g>
<g>
</g>
<g>
</g>
<g>
</g>
<g>
</g>
<g>
</g>
<g>
</g>
<g>
</g>
<g>
</g>
<g>
</g>
<g>
</g>
<g>
</g>
<g>
</g>
<g>
</g>
<g>
</g>
</svg>
