<?xml version="1.0" encoding="iso-8859-1"?>
<!-- Generator: Adobe Illustrator 19.0.0, SVG Export Plug-In . SVG Version: 6.00 Build 0)  -->
<svg version="1.1" id="Layer_1" xmlns="http://www.w3.org/2000/svg" xmlns:xlink="http://www.w3.org/1999/xlink" x="0px" y="0px"
	 viewBox="0 0 512 512" style="enable-background:new 0 0 512 512;" xml:space="preserve">
<path style="fill:#9E8CEC;" d="M365.265,464.541L279.27,378.26V248.243c0-12.853-10.42-23.273-23.273-23.273
	c-12.853,0-23.273,10.42-23.273,23.273v130.02l-85.993,86.281c-9.075,9.104-9.048,23.839,0.054,32.912
	c4.541,4.527,10.487,6.789,16.429,6.789c5.969,0,11.937-2.282,16.482-6.844l53.028-53.205v36.772
	c0,12.853,10.42,23.273,23.273,23.273c12.853,0,23.273-10.42,23.273-23.273v-36.777l53.031,53.206
	c4.546,4.561,10.512,6.844,16.482,6.844c5.942,0,11.886-2.262,16.429-6.789C374.315,488.38,374.339,473.644,365.265,464.541z"/>
<path style="fill:#6A56CF;" d="M365.265,464.541L279.27,378.26V248.243c0-12.853-10.42-23.273-23.273-23.273v279.273
	c12.853,0,23.273-10.42,23.273-23.273v-36.777l53.031,53.206c4.546,4.561,10.512,6.844,16.482,6.844
	c5.942,0,11.886-2.262,16.429-6.789C374.315,488.38,374.339,473.644,365.265,464.541z"/>
<path style="fill:#DC73AE;" d="M457.697,7.761H54.303c-12.853,0-23.273,10.42-23.273,23.273v217.212
	c0,12.853,10.42,23.273,23.273,23.273h403.394c12.851,0,23.273-10.42,23.273-23.273V31.034
	C480.97,18.181,470.548,7.761,457.697,7.761z"/>
<path style="fill:#DA50A1;" d="M457.697,7.761h-201.7v263.758h201.7c12.851,0,23.273-10.42,23.273-23.273V31.034
	C480.97,18.181,470.548,7.761,457.697,7.761z"/>
<path style="fill:#D4CBF6;" d="M467.496,9.924c-11.658-5.412-25.498-0.351-30.909,11.309l-79.739,171.748l-79.74-171.748
	c-0.019-0.042-0.043-0.081-0.064-0.121c-0.22-0.465-0.47-0.915-0.72-1.365c-0.126-0.223-0.234-0.461-0.365-0.68
	c-0.276-0.458-0.582-0.897-0.887-1.336c-0.132-0.188-0.248-0.391-0.385-0.576c-0.349-0.467-0.728-0.912-1.111-1.354
	c-0.565-0.652-1.156-1.274-1.781-1.853c-0.056-0.051-0.104-0.11-0.161-0.16c-0.566-0.512-1.154-0.993-1.764-1.444
	c-0.158-0.118-0.334-0.219-0.496-0.334c-0.464-0.326-0.929-0.649-1.413-0.939c-0.214-0.127-0.442-0.234-0.663-0.355
	c-0.455-0.251-0.908-0.504-1.378-0.726c-0.043-0.022-0.081-0.045-0.123-0.065c-0.261-0.121-0.527-0.208-0.788-0.32
	c-0.397-0.166-0.793-0.34-1.196-0.484c-0.389-0.138-0.78-0.248-1.171-0.365c-0.329-0.098-0.653-0.205-0.987-0.289
	c-0.43-0.109-0.863-0.189-1.294-0.273c-0.309-0.059-0.614-0.124-0.925-0.169c-0.433-0.065-0.864-0.106-1.294-0.146
	c-0.327-0.029-0.652-0.065-0.979-0.082c-0.406-0.022-0.808-0.019-1.212-0.019c-0.36,0-0.721-0.002-1.081,0.016
	c-0.369,0.019-0.739,0.057-1.106,0.095c-0.391,0.036-0.782,0.073-1.171,0.13c-0.351,0.051-0.695,0.124-1.041,0.192
	c-0.397,0.078-0.793,0.152-1.188,0.25c-0.363,0.092-0.721,0.206-1.081,0.315c-0.363,0.109-0.725,0.211-1.085,0.34
	c-0.424,0.15-0.836,0.33-1.252,0.504c-0.248,0.106-0.5,0.188-0.748,0.303c-0.04,0.02-0.079,0.043-0.118,0.062
	c-0.476,0.225-0.934,0.479-1.393,0.735c-0.216,0.119-0.439,0.227-0.649,0.351c-0.486,0.29-0.948,0.613-1.412,0.937
	c-0.163,0.115-0.34,0.219-0.5,0.337c-0.596,0.439-1.17,0.912-1.721,1.409c-0.188,0.169-0.355,0.355-0.537,0.531
	c-0.49,0.473-0.967,0.963-1.418,1.483c-0.394,0.453-0.784,0.911-1.139,1.39c-0.133,0.182-0.248,0.382-0.379,0.566
	c-0.309,0.442-0.618,0.884-0.894,1.345c-0.13,0.219-0.239,0.453-0.363,0.676c-0.25,0.451-0.501,0.901-0.721,1.368
	c-0.02,0.04-0.043,0.079-0.064,0.121l-79.74,171.745L75.411,21.233C69.997,9.575,56.162,4.515,44.504,9.924
	c-11.658,5.413-16.721,19.251-11.309,30.909l100.848,217.212c3.815,8.217,12.051,13.473,21.108,13.473
	c9.058,0,17.293-5.257,21.108-13.473L256,86.299l79.74,171.746c3.815,8.217,12.051,13.473,21.108,13.473s17.293-5.257,21.108-13.473
	L478.805,40.833C484.219,29.176,479.154,15.338,467.496,9.924z"/>
<path style="fill:#AB99EC;" d="M467.496,9.924c-11.658-5.412-25.498-0.351-30.909,11.309l-79.739,171.748l-79.74-171.748
	c-0.019-0.042-0.043-0.081-0.064-0.121c-0.22-0.465-0.47-0.915-0.72-1.365c-0.126-0.223-0.234-0.461-0.365-0.68
	c-0.276-0.458-0.582-0.897-0.887-1.336c-0.132-0.188-0.248-0.391-0.385-0.576c-0.349-0.467-0.728-0.912-1.111-1.354
	c-0.565-0.652-1.156-1.274-1.781-1.853c-0.056-0.051-0.104-0.11-0.161-0.16c-0.566-0.512-1.154-0.993-1.764-1.444
	c-0.158-0.118-0.334-0.219-0.496-0.334c-0.464-0.326-0.929-0.649-1.413-0.939c-0.214-0.127-0.442-0.234-0.663-0.355
	c-0.455-0.251-0.908-0.504-1.378-0.726c-0.043-0.022-0.081-0.045-0.123-0.065c-0.261-0.121-0.527-0.208-0.788-0.32
	c-0.397-0.166-0.793-0.34-1.196-0.484c-0.389-0.138-0.78-0.248-1.171-0.365c-0.329-0.098-0.653-0.205-0.987-0.289
	c-0.43-0.109-0.863-0.189-1.294-0.273c-0.309-0.059-0.614-0.124-0.925-0.169c-0.433-0.065-0.864-0.106-1.294-0.146
	c-0.327-0.029-0.652-0.065-0.979-0.082c-0.391-0.022-0.782-0.019-1.17-0.019v78.524L256,86.299l79.74,171.746
	c3.815,8.217,12.051,13.473,21.108,13.473s17.293-5.257,21.108-13.473L478.805,40.833C484.219,29.176,479.154,15.338,467.496,9.924z
	"/>
<path style="fill:#F4C514;" d="M488.727,54.306H23.273C10.42,54.306,0,43.886,0,31.034S10.42,7.761,23.273,7.761h465.455
	c12.851,0,23.273,10.42,23.273,23.273S501.578,54.306,488.727,54.306z"/>
<path style="fill:#F4C514;" d="M488.727,271.518H23.273C10.42,271.518,0,261.098,0,248.246s10.42-23.273,23.273-23.273h465.455
	c12.851,0,23.273,10.42,23.273,23.273S501.578,271.518,488.727,271.518z"/>
<g>
	<path style="fill:#E9D535;" d="M512,31.034c0-12.853-10.422-23.273-23.273-23.273h-232.73v46.545h232.73
		C501.578,54.306,512,43.886,512,31.034z"/>
	<path style="fill:#E9D535;" d="M488.727,224.973h-232.73v46.545h232.73c12.851,0,23.273-10.42,23.273-23.273
		S501.578,224.973,488.727,224.973z"/>
</g>
<g>
</g>
<g>
</g>
<g>
</g>
<g>
</g>
<g>
</g>
<g>
</g>
<g>
</g>
<g>
</g>
<g>
</g>
<g>
</g>
<g>
</g>
<g>
</g>
<g>
</g>
<g>
</g>
<g>
</g>
</svg>
